inDegrees=no
num_controls=7
num_derivatives=13
num_iterations=101
num_multipliers=7
num_parameters=0
num_slacks=7
num_states=26
objective=0.334191
objective_accelerations=0.036530
objective_balance=0.001198
objective_effort=0.027335
objective_height=0.267467
objective_ligament=0.001662
solver_duration=1042.756018
status=Solve_Succeeded
success=true
DataType=double
version=3
OpenSimVersion=4.5
endheader
time	/jointset/ground_pelvis/pelvis_tilt/value	/jointset/ground_pelvis/pelvis_tx/value	/jointset/ground_pelvis/pelvis_ty/value	/jointset/hip_r/hip_flexion_r/value	/jointset/hip_r/hip_adduction_r/value	/jointset/hip_r/hip_rotation_r/value	/jointset/back/lumbar_extension/value	/jointset/patellofemoral_r/patellar_flexion_r/value	/jointset/knee_r/knee_flexion_r/value	/jointset/knee_r/knee_adduction_r/value	/jointset/knee_r/knee_rotation_r/value	/jointset/ankle_r/ankle_angle_r/value	/jointset/subtalar_r/subtalar_angle_r/value	/jointset/ground_pelvis/pelvis_tilt/speed	/jointset/ground_pelvis/pelvis_tx/speed	/jointset/ground_pelvis/pelvis_ty/speed	/jointset/hip_r/hip_flexion_r/speed	/jointset/hip_r/hip_adduction_r/speed	/jointset/hip_r/hip_rotation_r/speed	/jointset/back/lumbar_extension/speed	/jointset/patellofemoral_r/patellar_flexion_r/speed	/jointset/knee_r/knee_flexion_r/speed	/jointset/knee_r/knee_adduction_r/speed	/jointset/knee_r/knee_rotation_r/speed	/jointset/ankle_r/ankle_angle_r/speed	/jointset/subtalar_r/subtalar_angle_r/speed	/forceset/tau_hip_flexion_r	/forceset/tau_hip_adduction_r	/forceset/tau_hip_rotation_r	/forceset/tau_knee_flexion_r	/forceset/tau_ankle_angle_r	/forceset/tau_subtalar_angle_r	/forceset/tau_lumbar_extension	lambda_cid13_p0	lambda_cid14_p0	lambda_cid14_p1	lambda_cid14_p2	lambda_cid14_p3	lambda_cid14_p4	lambda_cid14_p5	/jointset/ground_pelvis/pelvis_tilt/accel	/jointset/ground_pelvis/pelvis_tx/accel	/jointset/ground_pelvis/pelvis_ty/accel	/jointset/hip_r/hip_flexion_r/accel	/jointset/hip_r/hip_adduction_r/accel	/jointset/hip_r/hip_rotation_r/accel	/jointset/back/lumbar_extension/accel	/jointset/patellofemoral_r/patellar_flexion_r/accel	/jointset/knee_r/knee_flexion_r/accel	/jointset/knee_r/knee_adduction_r/accel	/jointset/knee_r/knee_rotation_r/accel	/jointset/ankle_r/ankle_angle_r/accel	/jointset/subtalar_r/subtalar_angle_r/accel	gamma_cid13_p0	gamma_cid14_p0	gamma_cid14_p1	gamma_cid14_p2	gamma_cid14_p3	gamma_cid14_p4	gamma_cid14_p5
1.5	-0.107732037001203	0.04069797064811983	0.8167377579045932	0.8228421601983558	-0.2399676468900373	-0.08832491028858384	-0.6242733004017345	0.9393199151178006	0.9393199151177974	0.01517090730007449	0.1744979757357701	0.3062676552333578	0.1160405813847664	0.5168098097631061	0.2211628843083114	0.5043940280300434	-2.055738704971227	0.01232254986899759	-0.3302332214085819	0.8017236409173849	-1.960484755025178	-1.960484755025187	0.3197027723664049	0.0004116603082789428	-0.5209649023677712	-0.170307834168423	-0.1711047992312288	0.0110846509605775	0.02709726210819216	-0.2867516534679934	-0.01044991197444104	-0.01113097101579339	0.2183446814089901	-8.910830128192266	-45.77003931553028	-11.81460924762339	1.12491555238644	-0.9223655231408142	-629.0915200308137	54.76467513538321	0.1252630271128145	0.5354838502359738	-0.5143638194820574	-0.9710215374472522	-0.1180837585351775	-0.2116170518494963	1.764514120604658	-1.348567254572608	-1.348567254572606	0.7746340453931969	-0.06274341651263073	-0.6669626647052368	-0.2694509956417722	4.114207339421966e-08	-1.53499169908447e-07	-2.893832558292557e-06	-1.396369152985752e-06	4.023821004097648e-07	3.906163367431846e-08	-1.822226193206555e-06
1.51	-0.1025581030634559	0.04293613483845407	0.8217549631265093	0.8022384053172996	-0.2398504722518754	-0.09164210446366172	-0.6161693529514182	0.9196498934629623	0.9196498934629618	0.01840336230727364	0.1745018389669649	0.3010254165242556	0.1143242831034301	0.5178996581426244	0.2264416635807177	0.4989405337943937	-2.064737610077289	0.01111193614430346	-0.3332509136020466	0.8189511766134598	-1.973249095133354	-1.973249095133355	0.3267153682734802	0.0003803385221234206	-0.5273981511517327	-0.1729101101081508	-0.1634793401666269	0.009310989212880153	0.02687874698922165	-0.2832775127021442	-0.008185896653373206	-0.01172324542401367	0.2114651932525526	-9.952509688304399	-44.75834895957566	-11.7604643259311	0.9629593611706279	-1.085365906838067	-624.2100659543571	54.7253459945854	0.08923111401132425	0.5199060252795328	-0.5768127664341403	-0.823147800223097	-0.123004380307338	-0.3536305476604942	1.684672414241239	-1.199799677159555	-1.199799677158399	0.6532748134181793	0.02921672638381384	-0.6187174998257196	-0.249943636208331	2.85397882760052e-08	-1.556076484951744e-07	-2.702615416125106e-06	-1.447998670079345e-06	3.829442975610208e-07	1.936279206459455e-08	-1.638468053833926e-06
1.52	-0.09737559356778408	0.04522625303341968	0.8267144392979034	0.7815528968245773	-0.239745494591135	-0.09499083260958774	-0.6078965703201142	0.8998603419493997	0.8998603419493998	0.02170368376356216	0.1745058976375013	0.2957214030243969	0.1125830965140822	0.5185249213477395	0.2315536852345832	0.4928482179256433	-2.072089427304854	0.009883154384779054	-0.3365400155781317	0.8354906771148274	-1.984390726770307	-1.9843907267703	0.3332760621826947	0.0004507481780015289	-0.5333198605190574	-0.1752854957706809	-0.1558538811020198	0.007537327465177853	0.02666023187020222	-0.279803371936296	-0.005921881332306427	-0.0123155198322409	0.2045857050961206	-10.99847776338708	-43.74849536022451	-11.70660038989562	0.8010035974962382	-1.242511990484186	-619.3485466465745	54.68090326093897	0.03234599223222013	0.5021323265278497	-0.6421281461022149	-0.6416039617481837	-0.1217173655012175	-0.26589900837356	1.62690708166317	-1.024025560327855	-1.024025560327854	0.6842536458210252	-0.04239712810595008	-0.5646547813778174	-0.2240729402022104	2.268204581909289e-08	-1.587513790299653e-07	-2.622712698389531e-06	-1.51504420422042e-06	3.760948879280319e-07	1.148169730371426e-09	-1.515121091205301e-06
1.53	-0.09218916832078301	0.04756656457507302	0.8316098506887099	0.760802229847216	-0.2396528500947117	-0.09837316073787372	-0.5994619834298022	0.8799676574732322	0.8799676574732309	0.02506787201649624	0.1745108602622989	0.2903607496418956	0.1108193290505964	0.5186839833098363	0.2364708034320752	0.4861331673985232	-2.077759039984889	0.008637470962666635	-0.3398822706894319	0.8512927774035619	-1.993857049651298	-1.993857049651291	0.339566113076351	0.0005195386235777118	-0.5387266337202643	-0.1774427998827877	-0.1482777369198591	0.005849377700817311	0.02631890909520732	-0.2762799883506354	-0.003903384178770403	-0.01292224806549799	0.1977070560297774	-12.04405099338479	-42.83376104106985	-11.67590532360577	0.6430105823383455	-1.283929373853491	-614.6763383395394	54.58991040187839	-0.003752068204028699	0.4809058396339064	-0.7013323108731113	-0.4869234791716366	-0.1276694788636732	-0.3618973329242095	1.536772970871414	-0.8645727683947629	-0.8645727683948901	0.6016627408813633	0.027796629267698	-0.5159716018724932	-0.208396512035727	2.399037993981403e-08	-1.629950647595737e-07	-2.661081556612824e-06	-1.598469256474444e-06	3.826206460867826e-07	-1.548946962363214e-08	-1.45596100386718e-06
1.54	-0.08700344012743937	0.04995492815335605	0.8364350838132739	0.7400034100314483	-0.2395729975621695	-0.101787613131355	-0.5908733932429237	0.8599889823449727	0.8599889823449701	0.028495017164322	0.1745157666912249	0.2849485719249059	0.1090346210729251	0.518385510615831	0.2411640925605215	0.4788125646771672	-2.081719994986547	0.007324761608656164	-0.3429648686173694	0.8662913364280093	-2.001588857188691	-2.001588857188685	0.3458674411597438	0.0004395090042864742	-0.5436247274166853	-0.1794735986077271	-0.1407015927376921	0.004161427936460222	0.02597758632017445	-0.2727566047649744	-0.001884887025232736	-0.01352897629874856	0.1908284069634396	-13.08572982341542	-41.92148348079888	-11.64660487258295	0.4863426674424998	-1.315363629839603	-610.0311975428996	54.4864261647142	-0.05916093898819606	0.457366512718712	-0.7632385849493966	-0.2998724260727614	-0.1351225518808112	-0.2139675717009734	1.466198828805755	-0.6771224916083288	-0.6771224916083286	0.6865090837683158	-0.07216114107948125	-0.4629188804206559	-0.1987718627687011	2.370180372201264e-08	-1.683003943595174e-07	-2.7037804734631e-06	-1.694086855743717e-06	3.89422264317214e-07	-3.029776136743512e-08	-1.400246952117288e-06
1.55	-0.08182304234233907	0.05238905814237947	0.8411841534882371	0.7191736484961478	-0.2395063940449697	-0.105232397238059	-0.5821390040311031	0.8399417483896259	0.8399417483896184	0.03198431512697699	0.1745194847823437	0.2794900951561782	0.1072306066863499	0.5176113075493858	0.245618949536697	0.4709071450995571	-2.083931718341399	0.00599699189328556	-0.3459952343326938	0.8804355153248812	-2.007555336981447	-2.007555336981439	0.3519415282677714	0.0003067258817612648	-0.5479749396331866	-0.1812874810447812	-0.1329559911475658	0.002292718421906798	0.02550447538895374	-0.2696745099727885	0.0005789171778560403	-0.01409523664869112	0.1838348321604254	-14.11922285317425	-40.8794495301314	-11.57713888760796	0.3234173606368121	-1.453210156402706	-605.6403061056718	54.52235275208724	-0.0989785291320195	0.4331820333623903	-0.8183374373813166	-0.1367577842571636	-0.131934976452381	-0.3481010524450703	1.365878828444485	-0.511025266325328	-0.5110252663249494	0.55983656925762	0.01613518405243649	-0.4066246251109222	-0.1670853508303824	2.157330907069624e-08	-1.748289223318038e-07	-2.751468370905334e-06	-1.803752389617518e-06	3.965417213258862e-07	-4.299832651687669e-08	-1.348503332675571e-06
1.56	-0.07665287229563292	0.0548664640498237	0.8458513402087812	0.6983307826284882	-0.2394531343839418	-0.1087075909981135	-0.5732677027486499	0.8198439267277016	0.819843926727699	0.03553274956969589	0.1745218694586258	0.2739910058187157	0.1054095756920728	0.5163399629365631	0.2498192762446818	0.4624359737933809	-2.08434086145888	0.004655990374422965	-0.3490467992878938	0.8936737505544157	-2.011706398502844	-2.011706398502833	0.3576947371733038	0.0001728260348952571	-0.5517472411635296	-0.1828769201480999	-0.1252103895574304	0.0004240089073649302	0.02503136445777543	-0.2665924151805986	0.003042721380948829	-0.01466149699861511	0.1768412573574175	-15.14149894466609	-39.84034286685691	-11.51064322782673	0.1637745334657889	-1.576085304410952	-601.2786033889977	54.53614968247206	-0.1585892482636281	0.4064604590805888	-0.8763889306626268	0.0606436214016408	-0.1377689125791986	-0.2182074196760529	1.285010095338275	-0.3140388373363498	-0.3140388373363495	0.6223334432692843	-0.07238448594768335	-0.3473367431890053	-0.1538831960215777	2.880352818315734e-08	-1.521855929889382e-07	-2.602000703314548e-06	-1.629180757123603e-06	3.639604176592374e-07	-1.17397808095028e-08	-1.249095719851982e-06
